<svg width="278" height="42" viewBox="0 0 278 42" fill="none" xmlns="http://www.w3.org/2000/svg">
<g clip-path="url(#clip0_162_3212)">
<path fill-rule="evenodd" clip-rule="evenodd" d="M21.8153 9.38257V41.314H34.2095L21.8153 9.38257Z" fill="white"/>
<path fill-rule="evenodd" clip-rule="evenodd" d="M16.2939 0.347412V41.3138H0L16.2939 0.347412Z" fill="white"/>
<path fill-rule="evenodd" clip-rule="evenodd" d="M50.6578 9.38257V41.314H37.9547L50.6578 9.38257Z" fill="white"/>
<path fill-rule="evenodd" clip-rule="evenodd" d="M61.1213 41.3138V0.347412H77.4152L61.1213 41.3138Z" fill="white"/>
<path fill-rule="evenodd" clip-rule="evenodd" d="M29.1128 0.347412L38.8814 25.4832L49.1906 0.347412H29.1128Z" fill="white"/>
<path fill-rule="evenodd" clip-rule="evenodd" d="M140.004 -8.85986e-05C142.515 0.075806 144.949 0.890387 147 2.34175C149.051 3.79311 150.629 5.81687 151.536 8.16004C152.443 10.5032 152.639 13.0618 152.1 15.516C151.561 17.9701 150.311 20.2109 148.505 21.9583C146.7 23.7056 144.419 24.882 141.949 25.3403C139.478 25.7985 136.927 25.5184 134.615 24.5349C132.303 23.5514 130.332 21.9081 128.949 19.8106C127.565 17.713 126.831 15.2542 126.837 12.7416C126.831 11.0304 127.171 9.33564 127.835 7.75891C128.5 6.18219 129.477 4.75605 130.706 3.56607C131.936 2.37609 133.394 1.44681 134.991 0.834001C136.589 0.221192 138.294 -0.0625135 140.004 -8.85986e-05ZM140.004 23.1666C144.212 23.1666 145.873 18.8421 145.873 12.8574C145.873 6.87269 144.212 2.47102 140.004 2.47102C135.795 2.47102 134.096 6.83408 134.096 12.7416C134.096 18.6491 135.795 23.1666 140.004 23.1666Z" fill="white"/>
<path fill-rule="evenodd" clip-rule="evenodd" d="M158.074 25.1357V0.347412H167.225C175.603 0.347412 181.704 4.4788 181.704 12.6257C181.704 21.3519 175.217 25.1357 168.074 25.1357H158.074ZM166.761 3.0888H164.561V22.3944H167.302C171.704 22.3944 175.024 20.0777 175.024 12.6257C174.831 6.29352 171.704 3.0888 166.761 3.0888Z" fill="white"/>
<path fill-rule="evenodd" clip-rule="evenodd" d="M186.608 0.347412H205.373V3.16602H193.094V10.8882H201.82V13.7069H193.094V22.3171H206.068V25.1357H186.608V0.347412Z" fill="white"/>
<path fill-rule="evenodd" clip-rule="evenodd" d="M229.852 0.347412H233.211V25.1357H230.663L214.794 6.64102V25.1357H211.434V0.347412H217.767L229.852 14.5949V0.347412Z" fill="white"/>
<path d="M246.493 0.347412H240.007V25.1357H246.493V0.347412Z" fill="white"/>
<path fill-rule="evenodd" clip-rule="evenodd" d="M262.517 13.8227L259.776 16.6027V25.1357H253.289V0.347412H259.776V12.5099L271.784 0.347412H275.838L266.919 9.3438L277.807 25.1357H270.239L262.517 13.8227Z" fill="white"/>
<path fill-rule="evenodd" clip-rule="evenodd" d="M114.714 0.347412H121.934V25.1357H115.563V5.79158L107.918 25.1357H105.64L98.1108 5.79158V25.1357H94.7903V0.347412H102.551L108.459 15.5602L114.714 0.347412Z" fill="white"/>
<path fill-rule="evenodd" clip-rule="evenodd" d="M94.8674 33.2056H96.7208V40.3486H100.659V41.3139H94.8674V33.2056Z" fill="white"/>
<path d="M108.072 33.2056H106.219V41.3139H108.072V33.2056Z" fill="white"/>
<path fill-rule="evenodd" clip-rule="evenodd" d="M114.096 33.2056H119.926V34.1708H115.949V36.7192H118.922V37.6458H115.949V41.3139H114.096V33.2056Z" fill="white"/>
<path fill-rule="evenodd" clip-rule="evenodd" d="M125.409 33.2056H131.355V34.1708H127.224V36.642H130.197V37.6072H127.224V40.3486H131.548V41.3139H125.409V33.2056Z" fill="white"/>
<path fill-rule="evenodd" clip-rule="evenodd" d="M139.965 38.1478L139 37.8389C137.649 37.4528 136.838 36.835 136.838 35.5609C136.838 34.2867 138.112 33.0897 139.888 33.0897C140.485 33.0843 141.073 33.2346 141.595 33.5257C142.116 33.8169 142.553 34.2388 142.861 34.75L142.205 35.4836C141.955 35.0747 141.603 34.7384 141.183 34.508C140.763 34.2777 140.29 34.1614 139.811 34.1709C139 34.1709 138.421 34.557 138.421 35.2134C138.421 35.8697 138.768 36.1014 139.695 36.3717L140.853 36.6806C142.166 37.0281 143.054 37.6459 143.054 38.9586C143.054 40.2714 141.664 41.6228 139.811 41.6228C139.14 41.6633 138.47 41.5279 137.867 41.2299C137.264 40.932 136.75 40.4818 136.375 39.9239L137.07 39.1903C137.362 39.65 137.767 40.0266 138.248 40.2836C138.728 40.5406 139.266 40.6694 139.811 40.6575C140.66 40.6575 141.394 40.31 141.394 39.5378C141.394 38.7656 140.931 38.6111 140.043 38.3409" fill="white"/>
<path fill-rule="evenodd" clip-rule="evenodd" d="M150.583 34.1322H147.572V33.2056H155.448V34.1322H152.437V41.3139H150.583V34.1322Z" fill="white"/>
<path fill-rule="evenodd" clip-rule="evenodd" d="M166.839 33.2056H168.036L164.947 37.8775V41.3139H163.093V37.8775L160.004 33.2056H162.128L164.483 36.7964L166.839 33.2056Z" fill="white"/>
<path fill-rule="evenodd" clip-rule="evenodd" d="M173.287 33.2056H175.14V40.3486H179.078V41.3139H173.287V33.2056Z" fill="white"/>
<path fill-rule="evenodd" clip-rule="evenodd" d="M184.638 33.2056H190.623V34.1708H186.492V36.642H189.465V37.6072H186.492V40.3486H190.816V41.3139H184.638V33.2056Z" fill="white"/>
<path fill-rule="evenodd" clip-rule="evenodd" d="M205.45 38.3022V41.3139H203.596V33.2056H207.033C208.925 33.2056 210.276 34.055 210.276 35.7539C210.276 37.4528 208.925 38.3022 207.033 38.3022H205.45ZM206.415 37.4142C207.805 37.4142 208.384 36.9122 208.384 35.7539C208.384 34.5956 207.805 34.0936 206.415 34.0936H205.45V37.4142H206.415Z" fill="white"/>
<path fill-rule="evenodd" clip-rule="evenodd" d="M221.628 33.2056H222.747L219.157 41.3139H218.462L214.794 33.2056H216.763L219.234 38.8814L221.628 33.2056Z" fill="white"/>
<path fill-rule="evenodd" clip-rule="evenodd" d="M230.393 34.1322H227.381V33.2056H235.219V34.1322H232.207V41.3139H230.393V34.1322Z" fill="white"/>
<path fill-rule="evenodd" clip-rule="evenodd" d="M247.806 33.2056H249.659V40.3486H253.598V41.3139H247.806V33.2056Z" fill="white"/>
<path fill-rule="evenodd" clip-rule="evenodd" d="M260.278 34.1322H257.266V33.2056H265.143V34.1322H262.131V41.3139H260.278V34.1322Z" fill="white"/>
<path fill-rule="evenodd" clip-rule="evenodd" d="M270.471 41.3139V33.2056H273.328C276.108 33.2056 278 34.5956 278 37.0667C278.042 37.6454 277.952 38.2261 277.739 38.7655C277.525 39.305 277.192 39.7893 276.766 40.1826C276.339 40.5759 275.829 40.8679 275.274 41.037C274.719 41.2061 274.133 41.248 273.56 41.1595L270.471 41.3139ZM273.212 34.0936H272.324V40.4258H273.328C274.988 40.4258 276.031 39.5378 276.031 37.2211C276.031 34.9045 274.988 34.0936 273.212 34.0936Z" fill="white"/>
</g>
<defs>
<clipPath id="clip0_162_3212">
<rect width="278" height="41.4297" fill="white"/>
</clipPath>
</defs>
</svg>
