<svg width="1132" height="312" viewBox="0 0 1132 312" fill="none" xmlns="http://www.w3.org/2000/svg">
<path d="M395.427 147.001H363.272L320.43 19.5324H350.287L379.438 119.528H380.056L409.207 19.5324H438.269L395.427 147.001ZM535.792 124.917V147.001H451.343V19.5324H535.792V41.5279H478.02V72.2687H532.523V92.7626H478.02V124.917H535.792ZM580.578 147.001H555.049V19.5324H577.309L636.848 102.568H637.554V19.5324H663.083V147.001H640.999L581.373 63.5235H580.578V147.001ZM741.967 147.001H715.29V41.5279H678.012V19.5324H779.333V41.5279H741.967V147.001ZM820.762 19.5324V99.2994C820.762 107.603 823.088 114.199 827.741 119.087C832.452 123.916 839.048 126.33 847.528 126.33C855.949 126.33 862.486 123.916 867.138 119.087C871.85 114.199 874.205 107.603 874.205 99.2994V19.5324H900.883V101.949C900.883 116.083 896.024 127.508 886.307 136.224C876.649 144.881 863.723 149.209 847.528 149.209C831.274 149.209 818.289 144.881 808.572 136.224C798.914 127.508 794.085 116.083 794.085 101.949V19.5324H820.762ZM948.849 40.3796V81.0139H972.258C978.971 81.0139 984.183 79.2178 987.893 75.6255C991.662 72.0332 993.547 67.0569 993.547 60.6968C993.547 54.5133 991.603 49.5959 987.716 45.9447C983.83 42.2346 978.588 40.3796 971.993 40.3796H948.849ZM948.849 100.359V147.001H922.171V19.5324H974.819C989.365 19.5324 1000.67 23.1542 1008.74 30.3977C1016.87 37.5823 1020.93 47.5053 1020.93 60.1667C1020.93 68.4703 1018.87 75.8905 1014.75 82.4273C1010.68 88.9053 1005.03 93.5576 997.787 96.3843L1024.64 147.001H994.43L970.668 100.359H948.849ZM1122.87 124.917V147.001H1038.42V19.5324H1122.87V41.5279H1065.1V72.2687H1119.6V92.7626H1065.1V124.917H1122.87Z" fill="#0099FF"/>
<path d="M332.578 253.516H353.296C354.293 261.989 363.121 267.542 374.512 267.542C385.975 267.542 393.807 262.06 393.807 254.513C393.807 247.821 388.894 244.118 376.506 241.342L363.121 238.423C344.183 234.365 334.856 224.753 334.856 209.731C334.856 190.793 351.231 178.262 374.156 178.262C398.078 178.262 413.101 190.579 413.457 209.161H393.308C392.596 200.475 384.978 195.207 374.228 195.207C363.619 195.207 356.5 200.262 356.5 207.88C356.5 214.216 361.484 217.776 373.302 220.481L385.761 223.116C406.337 227.53 415.308 236.358 415.308 252.021C415.308 271.956 399.146 284.558 373.658 284.558C348.953 284.558 333.219 272.81 332.578 253.516ZM450.051 282.778H428.55V180.042H450.051V226.889H450.692L489.28 180.042H513.202L475.183 225.607L515.836 282.778H490.134L459.663 239.847L450.051 251.38V282.778ZM546.45 282.778H524.949V180.042H546.45V282.778ZM629.963 264.979V282.778H563.537V180.042H585.038V264.979H629.963ZM709.133 264.979V282.778H642.707V180.042H664.208V264.979H709.133Z" fill="#FF7B00"/>
<path d="M774.704 282.777H753.203V180.042H774.704V282.777ZM812.367 282.777H791.791V180.042H809.733L857.719 246.966H858.288V180.042H878.864V282.777H861.065L813.008 215.497H812.367V282.777ZM896.022 180.042H935.607C966.435 180.042 984.59 198.41 984.59 231.018C984.59 263.626 966.435 282.777 935.607 282.777H896.022V180.042ZM917.523 197.77V264.978H933.044C952.267 264.978 962.661 253.302 962.661 231.089C962.661 209.588 951.982 197.77 933.044 197.77H917.523ZM1019.9 282.777H998.402V180.042H1019.9V282.777ZM1104.27 282.777L1096.44 257.859H1060.34L1052.51 282.777H1030.44L1066.11 180.042H1091.38L1127.12 282.777H1104.27ZM1078.14 199.692L1064.97 241.769H1091.81L1078.64 199.692H1078.14Z" fill="#06A95D"/>
<path d="M279.106 20.0309C287.923 18.7692 294.527 27.9289 290.545 35.8951L176.929 263.167C170.793 275.44 158.455 282.241 145.866 282.099C133.277 282.24 120.939 275.44 114.803 263.167L93.8711 221.297L132.775 162.024L145.866 183.275L224.257 56.002C236.292 36.4624 256.389 23.2826 279.106 20.0309ZM1.18632 35.8951C-2.79573 27.9289 3.80962 18.7692 12.6259 20.0309C35.3429 23.2826 55.4399 36.4623 67.4749 56.002L106.778 119.813L65.846 165.237L1.18632 35.8951Z" fill="#0099FF"/>
<path d="M217.834 42.0676C217.834 52.679 209.231 61.2812 198.62 61.2812C188.008 61.2812 179.406 52.679 179.406 42.0676C179.406 31.4562 188.008 22.8539 198.62 22.8539C209.231 22.8539 217.834 31.4562 217.834 42.0676Z" fill="#06A95D"/>
<path d="M91.2399 75.5828C116.724 57.2115 179.121 12.2296 181.281 10.6781C183.998 8.72665 189.033 10.6778 181.281 18.185C175.579 23.7074 150.33 47.7539 137.378 60.0829C134.586 62.7411 136.484 67.4316 140.339 67.4316H181.523C184.919 67.4316 186.956 71.2048 185.092 74.0441L91.2295 217.051L67.7461 170.084L139.536 90.4133C142.012 87.6662 140.062 83.2854 136.364 83.2854H93.7791C89.6349 83.2854 87.8781 78.0063 91.2399 75.5828Z" fill="#FF7B00"/>
</svg>
